<?xml version="1.0" encoding="UTF-8"?>
<svg version="1.1" xmlns="http://www.w3.org/2000/svg" width="571" height="437">
<path d="M0 0 C0.86505157 -0.00637985 1.73010315 -0.0127597 2.62136841 -0.01933289 C3.54537445 -0.02044571 4.46938049 -0.02155853 5.42138672 -0.02270508 C6.38704559 -0.02603348 7.35270447 -0.02936188 8.34762573 -0.03279114 C10.39011155 -0.03784664 12.43260559 -0.04019989 14.47509766 -0.04003906 C17.56931552 -0.042214 20.66316992 -0.06035257 23.75732422 -0.0793457 C25.74951051 -0.08228238 27.74169848 -0.08426534 29.73388672 -0.08520508 C31.1016777 -0.09598335 31.1016777 -0.09598335 32.49710083 -0.10697937 C49.78433887 -0.04681131 49.78433887 -0.04681131 55.10107422 5.08276367 C59.593729 10.87592378 58.73218232 17.2283667 58.77124023 24.23168945 C58.78273965 25.66701125 58.80315958 27.10229097 58.83276367 28.53735352 C59.13561795 43.22663218 59.13561795 43.22663218 54.47607422 49.14526367 C54.95044922 49.74338867 55.42482422 50.34151367 55.91357422 50.95776367 C58.22486396 54.19356931 58.60042919 56.75054017 58.58959961 60.61669922 C58.58948631 61.96776009 58.58948631 61.96776009 58.58937073 63.34611511 C58.58420944 64.31495132 58.57904816 65.28378754 58.57373047 66.28198242 C58.57231552 67.2765596 58.57090057 68.27113678 58.56944275 69.29585266 C58.56384182 72.47485349 58.55128918 75.6537841 58.53857422 78.83276367 C58.53355934 80.98705953 58.52899641 83.14135649 58.52490234 85.2956543 C58.5138721 90.57888142 58.49713308 95.86206753 58.47607422 101.14526367 C60.10403931 101.13740845 60.10403931 101.13740845 61.76489258 101.12939453 C65.77725404 101.11134531 69.78961188 101.09983196 73.80200195 101.09033203 C75.5412659 101.08529163 77.28052558 101.07845937 79.01977539 101.06982422 C81.51433359 101.05774575 84.00883595 101.05203259 86.50341797 101.04760742 C87.28571274 101.04244614 88.06800751 101.03728485 88.87400818 101.03196716 C90.74174536 101.03177141 92.60936626 101.08326673 94.47607422 101.14526367 C95.47607422 102.14526367 95.47607422 102.14526367 95.57373047 105.74291992 C95.56705642 107.23123234 95.55509605 108.71952799 95.53857422 110.20776367 C95.5340625 110.96637695 95.52955078 111.72499023 95.52490234 112.5065918 C95.51308102 114.38618238 95.495145 116.26573266 95.47607422 118.14526367 C96.22179687 118.11384277 96.96751953 118.08242187 97.73583984 118.05004883 C101.14893666 117.92452059 104.56154675 117.8470357 107.97607422 117.77026367 C109.14912109 117.71999023 110.32216797 117.6697168 111.53076172 117.61791992 C118.20165345 117.50548916 122.63707566 117.9136617 127.90771484 122.16235352 C132.23207173 127.62973002 132.91194188 132.93376334 132.81665039 139.65087891 C132.81708847 140.47120102 132.81752655 141.29152313 132.81797791 142.13670349 C132.81590157 144.82600389 132.79262566 147.51466704 132.76904297 150.20385742 C132.7634429 152.07715006 132.75917474 153.95044711 132.75617981 155.82374573 C132.74476342 160.73766355 132.71532396 165.65131244 132.68206787 170.56512451 C132.65129771 175.58594119 132.63765966 180.60680162 132.62255859 185.62768555 C132.59045108 195.46699596 132.53929368 205.30610739 132.47607422 215.14526367 C128.07951249 215.16991871 123.68298702 215.1881021 119.28637695 215.20019531 C117.78962504 215.20523488 116.29287806 215.21206655 114.79614258 215.22070312 C112.64907615 215.23278526 110.5020746 215.23849559 108.35498047 215.24291992 C107.06148682 215.24815674 105.76799316 215.25339355 104.43530273 215.25878906 C101.47607422 215.14526367 101.47607422 215.14526367 100.47607422 214.14526367 C100.3817808 211.96720648 100.35864884 209.78605087 100.36254883 207.60595703 C100.3624028 206.92306107 100.36225677 206.2401651 100.36210632 205.53657532 C100.36280545 203.26938753 100.37059782 201.00228094 100.37841797 198.73510742 C100.38028215 197.1671198 100.38170605 195.5991316 100.38270569 194.03114319 C100.38653088 189.89649864 100.39636116 185.76188901 100.40740967 181.6272583 C100.41762377 177.41125969 100.42220331 173.19525546 100.42724609 168.97924805 C100.43798343 160.7012372 100.45505986 152.42325477 100.47607422 144.14526367 C98.82607422 144.14526367 97.17607422 144.14526367 95.47607422 144.14526367 C95.47607422 167.57526367 95.47607422 191.00526367 95.47607422 215.14526367 C85.24607422 215.14526367 75.01607422 215.14526367 64.47607422 215.14526367 C64.47607422 183.79526367 64.47607422 152.44526367 64.47607422 120.14526367 C56.22607422 120.14526367 47.97607422 120.14526367 39.47607422 120.14526367 C34.08251824 117.98784128 30.77981928 116.03104349 28.34375 110.63891602 C27.16221227 105.8815145 27.22908187 101.37928586 27.28076172 96.49682617 C27.28359161 95.48429779 27.28642151 94.47176941 27.28933716 93.42855835 C27.30049168 90.20900429 27.32558775 86.98973302 27.35107422 83.77026367 C27.36111012 81.58146562 27.37023491 79.39266319 27.37841797 77.20385742 C27.40041551 71.85089709 27.43384597 66.49810059 27.47607422 61.14526367 C25.82607422 61.14526367 24.17607422 61.14526367 22.47607422 61.14526367 C22.47607422 77.97526367 22.47607422 94.80526367 22.47607422 112.14526367 C14.58737341 113.27222093 14.58737341 113.27222093 10.59326172 113.27807617 C9.73603516 113.27936523 8.87880859 113.2806543 7.99560547 113.28198242 C7.12291016 113.27811523 6.25021484 113.27424805 5.35107422 113.27026367 C4.47064453 113.27413086 3.59021484 113.27799805 2.68310547 113.28198242 C1.82845703 113.28069336 0.97380859 113.2794043 0.09326172 113.27807617 C-0.6738916 113.27694824 -1.44104492 113.27582031 -2.23144531 113.2746582 C-4.52392578 113.14526367 -4.52392578 113.14526367 -9.52392578 112.14526367 C-9.52392578 75.51526367 -9.52392578 38.88526367 -9.52392578 1.14526367 C-6.02952634 0.44638378 -3.44541628 0.01739181 0 0 Z M22.47607422 26.14526367 C22.47607422 29.44526367 22.47607422 32.74526367 22.47607422 36.14526367 C24.12607422 36.14526367 25.77607422 36.14526367 27.47607422 36.14526367 C27.47607422 32.84526367 27.47607422 29.54526367 27.47607422 26.14526367 C25.82607422 26.14526367 24.17607422 26.14526367 22.47607422 26.14526367 Z " fill="#080808" transform="translate(168.52392578125,58.854736328125)"/>
<path d="M0 0 C0.99263855 0.00187317 1.9852771 0.00374634 3.00799561 0.00567627 C5.08869835 0.01235083 7.16938954 0.02617241 9.25 0.046875 C12.42720264 0.07817749 15.60390797 0.08786966 18.78125 0.09375 C20.81250603 0.10291621 22.84375704 0.11329076 24.875 0.125 C25.81885559 0.12924988 26.76271118 0.13349976 27.73516846 0.13787842 C29.06750519 0.15228973 29.06750519 0.15228973 30.42675781 0.16699219 C31.58730682 0.17723419 31.58730682 0.17723419 32.77130127 0.18768311 C35.6192787 0.35429967 38.366664 0.81975057 41.171875 1.328125 C41.24200685 16.21859965 41.29488361 31.10906148 41.32731152 45.99966621 C41.34276967 52.91389619 41.36383895 59.82802346 41.39819336 66.7421875 C41.43132833 73.4141163 41.44872613 80.08591631 41.45650673 86.75793076 C41.46205191 89.30404211 41.47288017 91.85014759 41.48906517 94.39621353 C41.51082612 97.96104835 41.5138424 101.52544153 41.51245117 105.09033203 C41.523237 106.14409531 41.53402283 107.19785858 41.5451355 108.28355408 C41.52173481 113.82094649 41.19583777 117.62946681 38.171875 122.328125 C37.511875 122.328125 36.851875 122.328125 36.171875 122.328125 C35.676875 123.813125 35.676875 123.813125 35.171875 125.328125 C29.65092846 127.9433102 25.10499985 128.49240163 19.015625 128.4375 C18.3250853 128.43229843 17.63454559 128.42709686 16.92308044 128.42173767 C9.16036995 128.34863167 1.39886592 128.17005939 -6.36108398 127.95581055 C-8.8154879 127.88927325 -11.27001074 127.83034823 -13.72460938 127.77148438 C-15.28907485 127.72962567 -16.85352859 127.68732572 -18.41796875 127.64453125 C-19.15007065 127.62781876 -19.88217255 127.61110626 -20.63645935 127.59388733 C-25.71372728 127.44252272 -25.71372728 127.44252272 -26.828125 126.328125 C-26.92758953 124.55953307 -26.95892717 122.78701049 -26.9609375 121.015625 C-26.96222656 119.94054687 -26.96351562 118.86546875 -26.96484375 117.7578125 C-26.95904297 116.06011719 -26.95904297 116.06011719 -26.953125 114.328125 C-26.95699219 113.19632812 -26.96085937 112.06453125 -26.96484375 110.8984375 C-26.96355469 109.82335937 -26.96226563 108.74828125 -26.9609375 107.640625 C-26.95980957 106.64675781 -26.95868164 105.65289062 -26.95751953 104.62890625 C-26.828125 102.328125 -26.828125 102.328125 -25.828125 101.328125 C-23.1618647 101.23957339 -20.52165386 101.21287827 -17.85546875 101.23046875 C-17.05782608 101.2318837 -16.26018341 101.23329865 -15.43836975 101.23475647 C-12.88075065 101.24037184 -10.32321782 101.25292688 -7.765625 101.265625 C-6.03580855 101.27063802 -4.30599074 101.27520127 -2.57617188 101.27929688 C1.67321053 101.29034625 5.92252812 101.30762114 10.171875 101.328125 C10.171875 100.008125 10.171875 98.688125 10.171875 97.328125 C9.44597168 97.33859863 8.72006836 97.34907227 7.97216797 97.35986328 C4.66377259 97.4015946 1.35543276 97.42750564 -1.953125 97.453125 C-3.09523438 97.46988281 -4.23734375 97.48664063 -5.4140625 97.50390625 C-7.07695313 97.51357422 -7.07695313 97.51357422 -8.7734375 97.5234375 C-10.29735107 97.53914795 -10.29735107 97.53914795 -11.85205078 97.55517578 C-15.11100929 97.30654318 -17.77927707 96.47690864 -20.828125 95.328125 C-20.828125 94.668125 -20.828125 94.008125 -20.828125 93.328125 C-21.818125 92.998125 -22.808125 92.668125 -23.828125 92.328125 C-26.45901584 87.41400072 -27.20548779 83.66781694 -27.21630859 78.03515625 C-27.22156555 77.34312103 -27.22682251 76.65108582 -27.23223877 75.93807983 C-27.24534062 73.67202547 -27.23673628 71.40668532 -27.2265625 69.140625 C-27.22858607 67.55313992 -27.23149987 65.96565575 -27.23526001 64.37817383 C-27.23967005 61.05964257 -27.23329511 57.74135444 -27.21923828 54.42285156 C-27.20214701 50.18279159 -27.21199531 45.94330143 -27.22995567 41.70326233 C-27.24082937 38.4277319 -27.2373308 35.15233513 -27.2295723 31.87680054 C-27.22758018 30.31399466 -27.22999459 28.7511764 -27.23701096 27.18838501 C-27.24468499 24.9989639 -27.23293975 22.81044796 -27.21630859 20.62109375 C-27.21392181 19.3786792 -27.21153503 18.13626465 -27.20907593 16.85620117 C-26.75657601 12.66549295 -25.81396415 10.03738586 -23.828125 6.328125 C-22.838125 5.998125 -21.848125 5.668125 -20.828125 5.328125 C-20.828125 4.668125 -20.828125 4.008125 -20.828125 3.328125 C-13.74342285 0.80014781 -7.49742653 -0.09892427 0 0 Z M4.171875 26.328125 C4.171875 41.508125 4.171875 56.688125 4.171875 72.328125 C6.151875 72.328125 8.131875 72.328125 10.171875 72.328125 C10.171875 57.148125 10.171875 41.968125 10.171875 26.328125 C8.191875 26.328125 6.211875 26.328125 4.171875 26.328125 Z " fill="#070708" transform="translate(112.828125,58.671875)"/>
<path d="M0 0 C9.9 0 19.8 0 30 0 C30 39.6 30 79.2 30 120 C-28.61111111 120 -28.61111111 120 -33.6875 115.75 C-37.77420012 110.8901404 -38.2518498 106.13732225 -38.29052734 99.92822266 C-38.29724457 99.24769333 -38.30396179 98.567164 -38.31088257 97.86601257 C-38.32977139 95.63195351 -38.33378198 93.39819628 -38.3359375 91.1640625 C-38.34237144 89.59996419 -38.34910024 88.03586707 -38.35610962 86.47177124 C-38.36805933 83.19860038 -38.37179279 79.92553488 -38.37060547 76.65234375 C-38.37040233 72.4739251 -38.39770875 68.29618697 -38.43214989 64.11792946 C-38.45447003 60.88869164 -38.45844147 57.65961633 -38.45738602 54.4303093 C-38.45973411 52.89063547 -38.46851279 51.35095662 -38.48405075 49.81135941 C-38.63812385 32.96941841 -38.63812385 32.96941841 -32.25 26.125 C-25.42038916 22.71019458 -18.45732487 22.74128245 -11 22.875 C-10.03449219 22.88402344 -9.06898438 22.89304687 -8.07421875 22.90234375 C-5.71587901 22.92569365 -3.35807714 22.95843953 -1 23 C-1.00523682 22.3387915 -1.01047363 21.67758301 -1.01586914 20.99633789 C-1.03657656 18.01840149 -1.04964012 15.04048018 -1.0625 12.0625 C-1.07087891 11.02158203 -1.07925781 9.98066406 -1.08789062 8.90820312 C-1.09111328 7.91884766 -1.09433594 6.92949219 -1.09765625 5.91015625 C-1.10289307 4.99371338 -1.10812988 4.07727051 -1.11352539 3.13305664 C-1 1 -1 1 0 0 Z M-6 49 C-6 64.18 -6 79.36 -6 95 C-4.35 95 -2.7 95 -1 95 C-1 79.82 -1 64.64 -1 49 C-2.65 49 -4.3 49 -6 49 Z " fill="#060606" transform="translate(417,36)"/>
<path d="M0 0 C0.86179367 -0.00570007 1.72358734 -0.01140015 2.61149597 -0.01727295 C4.43117048 -0.02669614 6.25086184 -0.03324625 8.07055664 -0.03710938 C10.83575627 -0.04680588 13.6002092 -0.07785071 16.36523438 -0.109375 C18.13931854 -0.11590698 19.91340798 -0.12115669 21.6875 -0.125 C22.50547562 -0.1373468 23.32345123 -0.1496936 24.16621399 -0.16241455 C30.63204727 -0.13766654 36.14795902 0.99377547 41.41796875 5.015625 C44.99466073 9.83040266 45.29692428 14.82820851 45.31762695 20.67382812 C45.32273788 21.39658432 45.32784882 22.11934052 45.33311462 22.86399841 C45.34694058 25.23754303 45.34605947 27.61079507 45.34375 29.984375 C45.3476402 31.64294542 45.35197554 33.30151485 45.35673523 34.96008301 C45.36418195 38.42996456 45.363917 41.89974432 45.35864258 45.36962891 C45.35284372 49.80819867 45.36979633 54.24635172 45.39298725 58.6848526 C45.40774217 62.10787374 45.40859401 65.53079485 45.40547752 68.95384216 C45.40598965 70.59005052 45.41120687 72.22626464 45.42128944 73.86244202 C45.43367382 76.15270862 45.42685135 78.44216748 45.4152832 80.73242188 C45.41591263 82.03336792 45.41654205 83.33431396 45.41719055 84.67468262 C45.01447245 88.4718094 43.9536023 90.92575642 42.04296875 94.203125 C41.38296875 94.203125 40.72296875 94.203125 40.04296875 94.203125 C40.04296875 94.863125 40.04296875 95.523125 40.04296875 96.203125 C34.61011704 99.59381708 30.05656987 99.64196828 23.859375 99.6015625 C22.88564438 99.60443268 21.91191376 99.60730286 20.90867615 99.61026001 C18.85537126 99.61229572 16.80204676 99.60680043 14.7487793 99.59423828 C11.6191839 99.57819531 8.49088329 99.59409511 5.36132812 99.61328125 C3.36067425 99.61129839 1.36002118 99.60745384 -0.640625 99.6015625 C-2.03467812 99.61067154 -2.03467812 99.61067154 -3.45689392 99.6199646 C-9.05298299 99.55989993 -12.97157034 98.77876885 -17.95703125 96.203125 C-17.95703125 95.543125 -17.95703125 94.883125 -17.95703125 94.203125 C-18.61703125 94.203125 -19.27703125 94.203125 -19.95703125 94.203125 C-23.86177229 86.34517295 -23.39352466 78.26841879 -23.35546875 69.69921875 C-23.3574928 68.09074268 -23.36040699 66.48226751 -23.36416626 64.87379456 C-23.36857277 61.51416222 -23.36221199 58.15477026 -23.34814453 54.79516602 C-23.33103964 50.50245028 -23.34091245 46.21029681 -23.35886192 41.91760159 C-23.36973341 38.60003976 -23.36623829 35.28260995 -23.35847855 31.96504402 C-23.35648654 30.38270055 -23.35890045 28.80034484 -23.36591721 27.21801567 C-23.37358914 25.00236389 -23.36184942 22.78760709 -23.34521484 20.57202148 C-23.34282806 19.31485825 -23.34044128 18.05769501 -23.33798218 16.76243591 C-22.83962917 12.1062107 -21.55253073 8.14736754 -18.52734375 4.4609375 C-12.63273423 -0.15916185 -7.17618984 0.03700988 0 0 Z M9.04296875 27.203125 C9.04296875 42.383125 9.04296875 57.563125 9.04296875 73.203125 C10.69296875 73.203125 12.34296875 73.203125 14.04296875 73.203125 C14.04296875 58.023125 14.04296875 42.843125 14.04296875 27.203125 C12.39296875 27.203125 10.74296875 27.203125 9.04296875 27.203125 Z " fill="#080808" transform="translate(385.95703125,278.796875)"/>
<path d="M0 0 C0.87974487 -0.00287018 1.75948975 -0.00574036 2.66589355 -0.00869751 C4.51473642 -0.01072718 6.36360129 -0.00527464 8.21240234 0.00732422 C11.02360583 0.0233938 13.83337186 0.0074382 16.64453125 -0.01171875 C18.45052397 -0.00973612 20.2565158 -0.00589205 22.0625 0 C22.89293823 -0.00607269 23.72337646 -0.01214539 24.57897949 -0.0184021 C31.17806524 0.06015048 37.11617637 0.98336387 41.96875 5.8359375 C44.9034101 10.64878007 44.66957696 15.32614575 44.64477539 20.83886719 C44.64492142 21.68801193 44.64506744 22.53715668 44.6452179 23.41203308 C44.64452201 26.214819 44.63674476 29.01753821 44.62890625 31.8203125 C44.62704092 33.76515669 44.62561756 35.71000136 44.62461853 37.65484619 C44.62080242 42.77090759 44.61097984 47.88694055 44.59991455 53.00299072 C44.58968098 58.22464615 44.58511674 63.44630618 44.58007812 68.66796875 C44.56935678 78.91147082 44.5522912 89.15495179 44.53125 99.3984375 C36.82664339 99.47464659 29.1221344 99.52710442 21.41723633 99.56323242 C18.79740771 99.57829729 16.17760422 99.59875304 13.55786133 99.62475586 C9.78720895 99.66123912 6.01689074 99.67818738 2.24609375 99.69140625 C1.07916489 99.70689011 -0.08776398 99.72237396 -1.29005432 99.73832703 C-7.46605764 99.73959854 -12.05830936 99.48581393 -17.46875 96.3984375 C-22.25708541 91.61010209 -23.67486826 86.42882985 -23.77229309 79.74002075 C-23.77138168 79.0523764 -23.77047028 78.36473206 -23.76953125 77.65625 C-23.77381638 76.92904755 -23.7781015 76.20184509 -23.78251648 75.4526062 C-23.7882324 73.92137691 -23.78878034 72.39012048 -23.78442383 70.85888672 C-23.78126837 68.53695515 -23.80473984 66.21630529 -23.83007812 63.89453125 C-23.83235213 62.39843909 -23.83305415 60.90234354 -23.83203125 59.40625 C-23.841241 58.72265411 -23.85045074 58.03905823 -23.85993958 57.33474731 C-23.79804148 50.76874507 -22.20805654 45.49452486 -18.03125 40.4609375 C-14.12570529 37.3174503 -10.74986759 37.26528762 -5.828125 37.08203125 C-4.22324219 37.01918945 -4.22324219 37.01918945 -2.5859375 36.95507812 C-1.47476563 36.91576172 -0.36359375 36.87644531 0.78125 36.8359375 C1.90789062 36.79275391 3.03453125 36.74957031 4.1953125 36.70507812 C6.97383954 36.59911735 9.75245391 36.49704608 12.53125 36.3984375 C12.86125 33.4284375 13.19125 30.4584375 13.53125 27.3984375 C11.88125 27.3984375 10.23125 27.3984375 8.53125 27.3984375 C8.551875 28.2028125 8.5725 29.0071875 8.59375 29.8359375 C8.53125 32.3984375 8.53125 32.3984375 7.53125 33.3984375 C5.31269736 33.48627292 3.09136504 33.50538359 0.87109375 33.49609375 C-0.12560585 33.49397133 -0.12560585 33.49397133 -1.1424408 33.49180603 C-3.27208899 33.48619268 -5.40163339 33.47363804 -7.53125 33.4609375 C-8.97200369 33.45592421 -10.41275903 33.45136101 -11.85351562 33.44726562 C-15.39196102 33.43621895 -18.93034539 33.41894542 -22.46875 33.3984375 C-25.45384577 27.42824597 -24.12435778 16.30969196 -22.15625 10.0859375 C-20.48774291 5.59244487 -18.22441031 3.74784317 -13.87304688 1.73583984 C-9.22899956 0.11396836 -4.88225001 -0.03570212 0 0 Z M8.53125 62.3984375 C8.53125 66.0284375 8.53125 69.6584375 8.53125 73.3984375 C10.18125 73.3984375 11.83125 73.3984375 13.53125 73.3984375 C13.53125 69.7684375 13.53125 66.1384375 13.53125 62.3984375 C11.88125 62.3984375 10.23125 62.3984375 8.53125 62.3984375 Z " fill="#080708" transform="translate(162.46875,278.6015625)"/>
<path d="M0 0 C1.30066406 -0.00128906 2.60132813 -0.00257813 3.94140625 -0.00390625 C4.96258545 -0.00076416 4.96258545 -0.00076416 6.00439453 0.00244141 C8.08503515 0.0077901 10.16545989 0.0024957 12.24609375 -0.00390625 C14.19708984 -0.00197266 14.19708984 -0.00197266 16.1875 0 C17.39083984 0.00112793 18.59417969 0.00225586 19.83398438 0.00341797 C22.59375 0.1328125 22.59375 0.1328125 23.59375 1.1328125 C23.68811529 3.37211136 23.71117327 5.61443 23.70727539 7.85571289 C23.70742142 8.558116 23.70756744 9.2605191 23.7077179 9.98420715 C23.70701872 12.31632528 23.69922617 14.6483645 23.69140625 16.98046875 C23.68954208 18.59329688 23.68811818 20.20612557 23.68711853 21.81895447 C23.68329323 26.07196607 23.67346285 30.32494374 23.66241455 34.57794189 C23.65220069 38.9145868 23.64762096 43.25123717 23.64257812 47.58789062 C23.63184059 56.10288019 23.61476403 64.61784213 23.59375 73.1328125 C25.24375 73.1328125 26.89375 73.1328125 28.59375 73.1328125 C28.59152939 72.23301163 28.58930878 71.33321075 28.58702087 70.40614319 C28.56702056 61.94467283 28.5517772 53.48321036 28.54193783 45.02172184 C28.53670935 40.67112791 28.52961235 36.32055343 28.51831055 31.9699707 C28.50748041 27.77490992 28.5014729 23.57986791 28.49887276 19.38479424 C28.49701874 17.78074282 28.49339856 16.17669247 28.48801994 14.572649 C28.48080781 12.33364735 28.47975913 10.0947242 28.48022461 7.85571289 C28.478004 6.57886124 28.47578339 5.30200958 28.47349548 3.98646545 C28.59375 1.1328125 28.59375 1.1328125 29.59375 0.1328125 C31.80025656 0.03268849 34.00997386 0.0020007 36.21875 0 C36.88084473 -0.00095673 37.54293945 -0.00191345 38.22509766 -0.00289917 C39.62727961 -0.00358076 41.0294647 -0.00172792 42.43164062 0.00244141 C44.58470713 0.00779004 46.73756502 0.0024958 48.890625 -0.00390625 C50.25000046 -0.00324546 51.6093758 -0.00196429 52.96875 0 C54.83660156 0.00169189 54.83660156 0.00169189 56.7421875 0.00341797 C59.59375 0.1328125 59.59375 0.1328125 60.59375 1.1328125 C60.70483251 3.73768777 60.75114179 6.31629593 60.75488281 8.92211914 C60.76233017 10.14664291 60.76233017 10.14664291 60.76992798 11.39590454 C60.78459667 14.11160105 60.79136173 16.82723903 60.796875 19.54296875 C60.80262553 21.42809552 60.80838327 23.31322227 60.81414795 25.198349 C60.82467332 29.16047438 60.83050495 33.12257939 60.83398438 37.0847168 C60.83945207 42.14983055 60.86343653 47.21467316 60.89195633 52.27970219 C60.91063407 56.17889677 60.91579119 60.07802697 60.91732025 63.9772625 C60.92033909 65.84348459 60.92834158 67.70970576 60.94150543 69.57588387 C60.95866249 72.19670913 60.95666154 74.81688468 60.95019531 77.43774414 C60.9594101 78.20222366 60.96862488 78.96670319 60.9781189 79.75434875 C60.93661032 85.15616792 59.86537652 89.20969918 57.59375 94.1328125 C53.34945958 97.58129847 49.77956504 99.23851293 44.34106445 99.30981445 C43.48619949 99.32264969 42.63133453 99.33548492 41.75056458 99.34870911 C40.82869858 99.35609604 39.90683258 99.36348297 38.95703125 99.37109375 C38.0036235 99.3791655 37.05021576 99.38723724 36.06791687 99.39555359 C34.04798191 99.40938699 32.02802365 99.42011248 30.00805664 99.42797852 C26.93525166 99.44515043 23.86353424 99.4890386 20.79101562 99.53320312 C18.82552872 99.54333414 16.86003269 99.55184896 14.89453125 99.55859375 C13.98278641 99.57610184 13.07104156 99.59360992 12.13166809 99.61164856 C6.10874213 99.59140969 1.63956801 98.50936817 -3.40625 95.1328125 C-7.95137504 90.44107052 -7.55159422 85.01066666 -7.53564453 78.80004883 C-7.53739685 77.96226395 -7.53914917 77.12447906 -7.54095459 76.26130676 C-7.54535142 73.49579795 -7.54244353 70.7303532 -7.5390625 67.96484375 C-7.53973597 66.04481494 -7.54070636 64.12478621 -7.54196167 62.20475769 C-7.54343554 58.18410428 -7.54129333 54.16347309 -7.53662109 50.14282227 C-7.53091247 44.97743628 -7.53421193 39.81210213 -7.54019356 34.64671803 C-7.54379772 30.68433742 -7.54266145 26.72196921 -7.54006577 22.75958824 C-7.53939669 20.85410239 -7.54022424 18.94861543 -7.54254532 17.04313087 C-7.54507072 14.38785415 -7.54123339 11.7326629 -7.53564453 9.07739258 C-7.53766876 8.28310852 -7.53969299 7.48882446 -7.54177856 6.67047119 C-7.51452276 -0.28126705 -6.7900634 0.00636455 0 0 Z " fill="#090909" transform="translate(220.40625,278.8671875)"/>
<path d="M0 0 C1.20970459 0.00523682 2.41940918 0.01047363 3.66577148 0.01586914 C4.97094727 0.0190918 6.27612305 0.02231445 7.62084961 0.02563477 C9.00952213 0.03399138 10.39819401 0.04245634 11.78686523 0.05102539 C13.17944179 0.05603873 14.57202005 0.06060193 15.96459961 0.06469727 C19.38456394 0.07653105 22.80444367 0.09301659 26.22436523 0.11352539 C26.88436523 2.42352539 27.54436523 4.73352539 28.22436523 7.11352539 C29.27938232 7.10828857 30.33439941 7.10305176 31.42138672 7.09765625 C35.32193153 7.07960639 39.22247263 7.06809344 43.12304688 7.05859375 C44.81380839 7.0535535 46.50456552 7.04672134 48.1953125 7.03808594 C50.6203723 7.02600682 53.04537467 7.02029416 55.47045898 7.01586914 C56.61109047 7.00812721 56.61109047 7.00812721 57.77476501 7.00022888 C59.59169094 7.00003302 61.40849651 7.05155262 63.22436523 7.11352539 C64.94004316 8.82920331 64.35452349 11.08725274 64.35717773 13.42602539 C64.3584668 14.50110352 64.35975586 15.57618164 64.36108398 16.68383789 C64.3572168 17.81563477 64.35334961 18.94743164 64.34936523 20.11352539 C64.35323242 21.24532227 64.35709961 22.37711914 64.36108398 23.54321289 C64.35979492 24.61829102 64.35850586 25.69336914 64.35717773 26.80102539 C64.3560498 27.79489258 64.35492188 28.78875977 64.35375977 29.81274414 C64.22436523 32.11352539 64.22436523 32.11352539 63.22436523 33.11352539 C60.63102375 33.20203209 58.06373944 33.22885709 55.47045898 33.21118164 C54.78342896 33.21017456 54.09639893 33.20916748 53.3885498 33.20812988 C50.81297139 33.20288315 48.2374167 33.18892198 45.66186523 33.17602539 C39.90749023 33.15540039 34.15311523 33.13477539 28.22436523 33.11352539 C28.22436523 46.31352539 28.22436523 59.51352539 28.22436523 73.11352539 C29.87436523 73.11352539 31.52436523 73.11352539 33.22436523 73.11352539 C33.22436523 61.23352539 33.22436523 49.35352539 33.22436523 37.11352539 C43.12436523 37.11352539 53.02436523 37.11352539 63.22436523 37.11352539 C64.39226555 39.44932602 64.35705134 40.83413564 64.36962891 43.4362793 C64.37600876 44.33126129 64.38238861 45.22624329 64.38896179 46.14834595 C64.39007462 47.11912079 64.39118744 48.08989563 64.39233398 49.09008789 C64.39732658 50.58891006 64.39732658 50.58891006 64.40242004 52.11801147 C64.40749112 54.23809346 64.40982831 56.35818344 64.40966797 58.47827148 C64.41184229 61.70448229 64.4299624 64.93034444 64.44897461 68.15649414 C64.45191102 70.21769089 64.45389416 72.27888926 64.45483398 74.34008789 C64.4620195 75.29871735 64.46920502 76.2573468 64.47660828 77.24502563 C64.43292953 90.21954459 64.43292953 90.21954459 60.41186523 95.48852539 C54.93633385 99.55606299 49.71200936 99.42070372 43.13842773 99.41430664 C42.16328217 99.41859177 41.1881366 99.42287689 40.18344116 99.42729187 C38.12417374 99.43302492 36.06488606 99.43354299 34.00561523 99.42919922 C30.86723988 99.42604336 27.72981137 99.44949733 24.59155273 99.47485352 C22.58634558 99.47712713 20.58113591 99.47782972 18.57592773 99.47680664 C17.64342194 99.48601639 16.71091614 99.49522614 15.75015259 99.50471497 C10.13672194 99.46517386 6.22327793 98.70195777 1.22436523 96.11352539 C1.22436523 95.45352539 1.22436523 94.79352539 1.22436523 94.11352539 C0.56436523 94.11352539 -0.09563477 94.11352539 -0.77563477 94.11352539 C-4.70231393 88.25294541 -4.15924923 82.35799771 -4.06860352 75.49633789 C-4.06435867 74.2840451 -4.06011383 73.07175232 -4.05574036 71.82272339 C-4.03898422 67.96109557 -4.00133621 64.09999477 -3.96313477 60.23852539 C-3.94808403 57.61613711 -3.93439631 54.99374062 -3.92211914 52.37133789 C-3.88909062 45.95188806 -3.83892095 39.53274439 -3.77563477 33.11352539 C-5.42563477 32.78352539 -7.07563477 32.45352539 -8.77563477 32.11352539 C-9.72533345 29.26442933 -9.90432938 27.47103791 -9.90844727 24.51586914 C-9.90973633 23.6322168 -9.91102539 22.74856445 -9.91235352 21.83813477 C-9.90848633 20.91838867 -9.90461914 19.99864258 -9.90063477 19.05102539 C-9.90450195 18.12741211 -9.90836914 17.20379883 -9.91235352 16.25219727 C-9.91106445 15.36983398 -9.90977539 14.4874707 -9.90844727 13.57836914 C-9.90731934 12.77004639 -9.90619141 11.96172363 -9.9050293 11.12890625 C-9.77563477 9.11352539 -9.77563477 9.11352539 -8.77563477 7.11352539 C-7.12563477 7.11352539 -5.47563477 7.11352539 -3.77563477 7.11352539 C-3.79625977 6.14415039 -3.81688477 5.17477539 -3.83813477 4.17602539 C-3.75604496 0.15362485 -3.75604496 0.15362485 0 0 Z " fill="#090909" transform="translate(293.775634765625,278.886474609375)"/>
<path d="M0 0 C1.77890625 0.0009668 1.77890625 0.0009668 3.59375 0.00195312 C27.95187444 0.1216164 27.95187444 0.1216164 34.25 5.1875 C40.34112574 13.91811356 38.39746574 27.15880812 38.3828125 37.40234375 C38.38348701 39.06620803 38.38445827 40.73007221 38.38571167 42.39393616 C38.38717884 45.86265003 38.38506385 49.33133799 38.38037109 52.80004883 C38.37464309 57.25111645 38.37797829 61.70212417 38.38394356 66.15318966 C38.38754915 69.58031164 38.38641113 73.0074193 38.38381577 76.4345417 C38.3831481 78.07683888 38.38396933 79.71913736 38.38629532 81.36143303 C38.38882516 83.64715939 38.38497799 85.9327869 38.37939453 88.21850586 C38.37859894 89.51928574 38.37780334 90.82006561 38.37698364 92.16026306 C38.25 95.1875 38.25 95.1875 37.25 97.1875 C29.54539339 97.26370909 21.8408844 97.31616692 14.13598633 97.35229492 C11.51615771 97.36735979 8.89635422 97.38781554 6.27661133 97.41381836 C2.50595895 97.45030162 -1.26435926 97.46724988 -5.03515625 97.48046875 C-6.20208511 97.49595261 -7.36901398 97.51143646 -8.57130432 97.52738953 C-14.74350823 97.52866025 -19.34851686 97.28772674 -24.75 94.1875 C-29.69890583 88.97812544 -29.92567947 84.5216017 -29.98828125 77.609375 C-29.996353 76.76457581 -30.00442474 75.91977661 -30.01274109 75.04937744 C-30.02656834 73.26064091 -30.03729657 71.47187814 -30.04516602 69.68310547 C-30.06234912 66.96139826 -30.10624274 64.2409156 -30.15039062 61.51953125 C-30.16052085 59.77865473 -30.16903593 58.03776792 -30.17578125 56.296875 C-30.19328934 55.48933777 -30.21079742 54.68180054 -30.22883606 53.84979248 C-30.20720208 48.15137901 -28.98531099 44.89546391 -25.75 40.1875 C-21.57610017 36.1482421 -16.8189523 36.05862317 -11.23046875 36.08984375 C-10.20888672 36.09306641 -9.18730469 36.09628906 -8.13476562 36.09960938 C-7.07966797 36.10798828 -6.02457031 36.11636719 -4.9375 36.125 C-3.86306641 36.12951172 -2.78863281 36.13402344 -1.68164062 36.13867188 C0.96226357 36.15042256 3.606139 36.168357 6.25 36.1875 C6.25 32.8875 6.25 29.5875 6.25 26.1875 C4.6 26.1875 2.95 26.1875 1.25 26.1875 C1.270625 26.991875 1.29125 27.79625 1.3125 28.625 C1.25 31.1875 1.25 31.1875 0.25 32.1875 C-1.96855264 32.27533542 -4.18988496 32.29444609 -6.41015625 32.28515625 C-7.40685585 32.28303383 -7.40685585 32.28303383 -8.4236908 32.28086853 C-10.55333899 32.27525518 -12.68288339 32.26270054 -14.8125 32.25 C-16.25325369 32.24498671 -17.69400903 32.24042351 -19.13476562 32.23632812 C-22.67321102 32.22528145 -26.21159539 32.20800792 -29.75 32.1875 C-29.92485594 30.46527322 -30.09437198 28.74250389 -30.26171875 27.01953125 C-30.35670654 26.06022705 -30.45169434 25.10092285 -30.54956055 24.11254883 C-31.05549495 16.72935756 -30.61795367 11.05767942 -25.75 5.1875 C-19.68028164 -1.72334437 -8.37351882 -0.08535239 0 0 Z M1.25 61.1875 C1.25 64.8175 1.25 68.4475 1.25 72.1875 C2.9 72.1875 4.55 72.1875 6.25 72.1875 C6.25 68.5575 6.25 64.9275 6.25 61.1875 C4.6 61.1875 2.95 61.1875 1.25 61.1875 Z " fill="#070707" transform="translate(262.75,58.8125)"/>
<path d="M0 0 C0.9727739 -0.00902847 1.94554779 -0.01805695 2.94779968 -0.02735901 C5.00284762 -0.04184198 7.05794147 -0.05074338 9.11303711 -0.05444336 C12.24087112 -0.06632704 15.36672331 -0.11552176 18.49414062 -0.16601562 C20.49608418 -0.17548224 22.49803978 -0.18271613 24.5 -0.1875 C25.42734451 -0.20703232 26.35468903 -0.22656464 27.31013489 -0.24668884 C33.74576918 -0.20245176 38.02301143 1.1532135 42.94921875 5.37109375 C47.28986711 9.93741091 46.32634024 16.09294167 46.2421875 22.015625 C46.23794266 23.14054855 46.23369781 24.26547211 46.22932434 25.42448425 C46.21255565 29.01109937 46.17490563 32.59714896 46.13671875 36.18359375 C46.12166962 38.61783042 46.10798162 41.05207591 46.09570312 43.48632812 C46.062658 49.44810904 46.01247603 55.40956098 45.94921875 61.37109375 C42.31688773 62.58187076 38.99799888 62.49553539 35.21875 62.46875 C34.46832932 62.46733505 33.71790863 62.4659201 32.94474792 62.46446228 C30.55036415 62.45886935 28.15607422 62.44631819 25.76171875 62.43359375 C24.13737114 62.42857783 22.51302207 62.42401509 20.88867188 62.41992188 C16.90881806 62.40890223 12.92903431 62.39164248 8.94921875 62.37109375 C8.94921875 65.34109375 8.94921875 68.31109375 8.94921875 71.37109375 C11.42421875 70.87609375 11.42421875 70.87609375 13.94921875 70.37109375 C14.44421875 68.39109375 14.44421875 68.39109375 14.94921875 66.37109375 C18.30777398 65.61818522 21.41572869 65.24300246 24.85546875 65.23828125 C26.21865234 65.23634766 26.21865234 65.23634766 27.609375 65.234375 C28.54652344 65.23824219 29.48367188 65.24210937 30.44921875 65.24609375 C31.85494141 65.24029297 31.85494141 65.24029297 33.2890625 65.234375 C34.19785156 65.23566406 35.10664063 65.23695313 36.04296875 65.23828125 C36.86474609 65.23940918 37.68652344 65.24053711 38.53320312 65.24169922 C41.08529308 65.37838148 43.45816918 65.81265944 45.94921875 66.37109375 C46.06611501 69.74579879 46.13669809 73.11997805 46.19921875 76.49609375 C46.23273438 77.44742188 46.26625 78.39875 46.30078125 79.37890625 C46.38203406 85.22910837 46.08224174 88.86856208 41.94921875 93.37109375 C36.53550802 98.03819657 31.88909777 97.95751496 25.07421875 97.90234375 C24.03152832 97.90617065 22.98883789 97.90999756 21.91455078 97.91394043 C19.71581046 97.91665553 17.51703761 97.9093226 15.31835938 97.89257812 C11.96020228 97.87116379 8.6041846 97.89239454 5.24609375 97.91796875 C3.10546405 97.9153254 0.96483567 97.91020029 -1.17578125 97.90234375 C-2.17593262 97.91044067 -3.17608398 97.9185376 -4.20654297 97.92687988 C-9.95954281 97.84980879 -13.60995069 97.40726919 -18.05078125 93.37109375 C-21.15771569 89.25138207 -21.49615819 85.66677161 -21.48657227 80.66259766 C-21.4966481 79.9025795 -21.50672394 79.14256134 -21.5171051 78.35951233 C-21.54552368 75.8554093 -21.55145843 73.35191035 -21.5546875 70.84765625 C-21.56433281 69.10036983 -21.5744256 67.35308582 -21.58494568 65.60580444 C-21.60289171 61.9458047 -21.60846829 58.28601719 -21.60668945 54.62597656 C-21.60638467 49.94605945 -21.64733966 45.26750879 -21.69900608 40.58791542 C-21.73243478 36.97952071 -21.73844506 33.37145406 -21.73686028 29.76292038 C-21.74039039 28.03818425 -21.75360413 26.31343873 -21.77685738 24.58885574 C-21.96211395 9.43050817 -21.96211395 9.43050817 -18.32006836 4.88427734 C-12.68507058 -0.01875431 -7.17879529 0.04124387 0 0 Z M8.94921875 26.37109375 C8.94921875 29.67109375 8.94921875 32.97109375 8.94921875 36.37109375 C10.59921875 36.37109375 12.24921875 36.37109375 13.94921875 36.37109375 C15.18189223 35.36273313 15.18189223 35.36273313 15.046875 33.3046875 C15.03527344 32.48097656 15.02367187 31.65726563 15.01171875 30.80859375 C15.00269531 29.98230469 14.99367188 29.15601563 14.984375 28.3046875 C14.97277344 27.66660156 14.96117187 27.02851563 14.94921875 26.37109375 C12.96921875 26.37109375 10.98921875 26.37109375 8.94921875 26.37109375 Z " fill="#050505" transform="translate(328.05078125,176.62890625)"/>
<path d="M0 0 C0.71607422 -0.00128906 1.43214844 -0.00257812 2.16992188 -0.00390625 C2.89888672 -0.00003906 3.62785156 0.00382812 4.37890625 0.0078125 C5.10400391 0.00394531 5.82910156 0.00007813 6.57617188 -0.00390625 C11.13094251 0.00427842 15.44774439 0.38682911 19.94140625 1.1328125 C19.94140625 2.4528125 19.94140625 3.7728125 19.94140625 5.1328125 C20.68390625 4.6790625 21.42640625 4.2253125 22.19140625 3.7578125 C30.61655428 -0.43479671 39.63664086 -0.21820865 48.56640625 1.6953125 C52.65716458 4.1712978 54.99602688 6.70891452 56.94140625 11.1328125 C58.06748217 17.56122395 57.63889761 24.23024365 57.52734375 30.7265625 C57.51614153 32.6432563 57.50760619 34.55996739 57.50161743 36.47668457 C57.47879977 41.50109994 57.41993794 46.5244608 57.35339355 51.54846191 C57.2918181 56.68320453 57.26456991 61.81811893 57.234375 66.953125 C57.17018696 77.01355671 57.0647201 87.0729316 56.94140625 97.1328125 C46.71140625 97.1328125 36.48140625 97.1328125 25.94140625 97.1328125 C25.94140625 73.7028125 25.94140625 50.2728125 25.94140625 26.1328125 C23.96140625 26.1328125 21.98140625 26.1328125 19.94140625 26.1328125 C19.94140625 49.5628125 19.94140625 72.9928125 19.94140625 97.1328125 C10.04140625 97.1328125 0.14140625 97.1328125 -10.05859375 97.1328125 C-10.05859375 65.4528125 -10.05859375 33.7728125 -10.05859375 1.1328125 C-3.29678651 0.00584463 -3.29678651 0.00584463 0 0 Z " fill="#050505" transform="translate(317.05859375,58.8671875)"/>
<path d="M0 0 C0.66209473 -0.00095673 1.32418945 -0.00191345 2.00634766 -0.00289917 C3.40852961 -0.00358076 4.8107147 -0.00172792 6.21289062 0.00244141 C8.36595713 0.00779004 10.51881502 0.0024958 12.671875 -0.00390625 C14.03125046 -0.00324546 15.3906258 -0.00196429 16.75 0 C18.61785156 0.00169189 18.61785156 0.00169189 20.5234375 0.00341797 C23.375 0.1328125 23.375 0.1328125 24.375 1.1328125 C24.44705511 2.81890216 24.45886068 4.50781909 24.4375 6.1953125 C24.42847656 7.11441406 24.41945312 8.03351563 24.41015625 8.98046875 C24.39855469 9.69074219 24.38695312 10.40101563 24.375 11.1328125 C25.03918945 11.12757568 25.70337891 11.12233887 26.38769531 11.11694336 C50.00935607 10.9551231 50.00935607 10.9551231 60.375 12.1328125 C60.40386984 16.11196409 60.42175406 20.09108903 60.4375 24.0703125 C60.44587891 25.20662109 60.45425781 26.34292969 60.46289062 27.51367188 C60.46611328 28.59326172 60.46933594 29.67285156 60.47265625 30.78515625 C60.47789307 31.78538818 60.48312988 32.78562012 60.48852539 33.81616211 C60.375 36.1328125 60.375 36.1328125 59.375 37.1328125 C56.78140678 37.22132779 54.21460309 37.24807195 51.62109375 37.23046875 C50.84564713 37.2290538 50.0702005 37.22763885 49.27125549 37.22618103 C46.78496506 37.22056595 44.2987634 37.20801096 41.8125 37.1953125 C40.13086067 37.19029944 38.44921994 37.1857362 36.76757812 37.18164062 C32.63665671 37.17144082 28.50592818 37.15186855 24.375 37.1328125 C24.375 48.3528125 24.375 59.5728125 24.375 71.1328125 C26.025 71.1328125 27.675 71.1328125 29.375 71.1328125 C29.36976318 70.25955322 29.36452637 69.38629395 29.35913086 68.48657227 C29.34212249 65.25691977 29.32956631 62.02729005 29.32006836 58.79760742 C29.3150292 57.39786022 29.30819784 55.9981183 29.29956055 54.59838867 C29.2874768 52.59035473 29.28230193 50.58228293 29.27734375 48.57421875 C29.27210693 47.36451416 29.26687012 46.15480957 29.26147461 44.90844727 C29.375 42.1328125 29.375 42.1328125 30.375 41.1328125 C32.59355264 41.04497708 34.81488496 41.02586641 37.03515625 41.03515625 C38.03185585 41.03727867 38.03185585 41.03727867 39.0486908 41.03944397 C41.17833899 41.04505732 43.30788339 41.05761196 45.4375 41.0703125 C46.87825369 41.07532579 48.31900903 41.07988899 49.75976562 41.08398438 C53.29821102 41.09503105 56.83659539 41.11230458 60.375 41.1328125 C60.45123218 47.43156153 60.5036762 53.73019101 60.53979492 60.02929688 C60.55485641 62.17094367 60.57530972 64.31255974 60.60131836 66.45410156 C60.63781728 69.53718661 60.65475302 72.61986288 60.66796875 75.703125 C60.68345261 76.65647736 60.69893646 77.60982971 60.71488953 78.59207153 C60.71621773 83.87034824 60.36996742 87.5858062 57.375 92.1328125 C53.50327625 95.62680711 51.10096082 97.24714092 45.92871094 97.30981445 C45.00725281 97.32264969 44.08579468 97.33548492 43.13641357 97.34870911 C41.63802948 97.35978951 41.63802948 97.35978951 40.109375 97.37109375 C39.08322083 97.3791655 38.05706665 97.38723724 36.99981689 97.39555359 C34.82427666 97.40940139 32.64871464 97.42012042 30.47314453 97.42797852 C27.15224758 97.44517143 23.83235115 97.48904972 20.51171875 97.53320312 C18.39844482 97.54333169 16.28516243 97.55184728 14.171875 97.55859375 C13.18104919 97.57610184 12.19022339 97.59360992 11.16937256 97.61164856 C5.3756698 97.59350225 1.93697088 97.07380336 -2.625 93.1328125 C-6.40371979 88.94558246 -7.75322967 85.98831637 -7.73852539 80.38598633 C-7.73841209 78.94483208 -7.73841209 78.94483208 -7.73829651 77.4745636 C-7.73313522 76.44010605 -7.72797394 75.4056485 -7.72265625 74.33984375 C-7.7212413 73.27867844 -7.71982635 72.21751312 -7.71836853 71.12419128 C-7.71276606 67.73120315 -7.70021314 64.33828073 -7.6875 60.9453125 C-7.68248532 58.64648533 -7.67792236 56.34765712 -7.67382812 54.04882812 C-7.66279583 48.41013378 -7.6460553 42.77147784 -7.625 37.1328125 C-8.429375 37.1534375 -9.23375 37.1740625 -10.0625 37.1953125 C-12.625 37.1328125 -12.625 37.1328125 -13.625 36.1328125 C-13.71226223 34.35210004 -13.73199041 32.5679811 -13.72265625 30.78515625 C-13.71943359 29.70556641 -13.71621094 28.62597656 -13.71289062 27.51367188 C-13.70451172 26.37736328 -13.69613281 25.24105469 -13.6875 24.0703125 C-13.68298828 22.93013672 -13.67847656 21.78996094 -13.67382812 20.61523438 C-13.66199747 17.78770899 -13.6455141 14.9602861 -13.625 12.1328125 C-11.975 11.8028125 -10.325 11.4728125 -8.625 11.1328125 C-8.56441406 10.42253906 -8.50382813 9.71226562 -8.44140625 8.98046875 C-8.35761719 8.06136719 -8.27382812 7.14226562 -8.1875 6.1953125 C-8.10628906 5.27878906 -8.02507812 4.36226562 -7.94140625 3.41796875 C-7.29245354 -1.26891193 -4.13425671 0.0037448 0 0 Z " fill="#080808" transform="translate(166.625,176.8671875)"/>
<path d="M0 0 C9.9 0 19.8 0 30 0 C30.66 3.63 31.32 7.26 32 11 C33.35351562 10.98839844 34.70703125 10.97679687 36.1015625 10.96484375 C58.07225457 10.83363326 58.07225457 10.83363326 67 12 C68.64889766 13.64889766 68.12998381 15.57345384 68.1328125 17.83984375 C68.13410156 18.82017578 68.13539063 19.80050781 68.13671875 20.81054688 C68.13285156 21.84244141 68.12898437 22.87433594 68.125 23.9375 C68.12886719 24.96552734 68.13273438 25.99355469 68.13671875 27.05273438 C68.13542969 28.03435547 68.13414062 29.01597656 68.1328125 30.02734375 C68.13168457 30.93218506 68.13055664 31.83702637 68.12939453 32.76928711 C68 35 68 35 67 37 C55.12 37 43.24 37 31 37 C31 48.22 31 59.44 31 71 C32.65 71 34.3 71 36 71 C35.99476318 70.12674072 35.98952637 69.25348145 35.98413086 68.35375977 C35.96712249 65.12410727 35.95456631 61.89447755 35.94506836 58.66479492 C35.9400292 57.26504772 35.93319784 55.8653058 35.92456055 54.46557617 C35.9124768 52.45754223 35.90730193 50.44947043 35.90234375 48.44140625 C35.89710693 47.23170166 35.89187012 46.02199707 35.88647461 44.77563477 C36 42 36 42 37 41 C39.21855264 40.91216458 41.43988496 40.89305391 43.66015625 40.90234375 C44.65685585 40.90446617 44.65685585 40.90446617 45.6736908 40.90663147 C47.80333899 40.91224482 49.93288339 40.92479946 52.0625 40.9375 C53.50325369 40.94251329 54.94400903 40.94707649 56.38476562 40.95117188 C59.92321102 40.96221855 63.46159539 40.97949208 67 41 C68.68821048 44.37642095 68.18486378 48.20312942 68.203125 51.91796875 C68.20882507 52.80857498 68.21452515 53.69918121 68.22039795 54.61677551 C68.22985582 56.50565399 68.23638505 58.39454903 68.24023438 60.28344727 C68.24990303 63.15866424 68.28090335 66.03315513 68.3125 68.90820312 C68.31903385 70.74478743 68.32428282 72.58137684 68.328125 74.41796875 C68.3404718 75.27239059 68.3528186 76.12681244 68.36553955 77.00712585 C68.34182929 83.43710258 67.30744435 88.24595352 63.0625 93.3125 C59.57832984 96.16318468 56.86098941 97.24559209 52.35839844 97.32226562 C51.44354675 97.34148071 50.52869507 97.3606958 49.58612061 97.38049316 C48.60379456 97.38899292 47.62146851 97.39749268 46.609375 97.40625 C45.59079407 97.41765015 44.57221313 97.42905029 43.52276611 97.4407959 C41.36759585 97.45967739 39.21236808 97.47275655 37.05712891 97.48046875 C33.77532966 97.49985041 30.49605344 97.56189033 27.21484375 97.625 C25.11720232 97.63806442 23.01954303 97.64856366 20.921875 97.65625 C19.94764587 97.6809436 18.97341675 97.70563721 17.96966553 97.7310791 C11.90516226 97.69183177 8.32547453 96.56100664 3.56134033 92.77770996 C0.41800588 89.19877406 -0.25110387 85.5885995 -0.22705078 80.93432617 C-0.22682419 79.46336739 -0.22682419 79.46336739 -0.22659302 77.96269226 C-0.21627045 76.9166835 -0.20594788 75.87067474 -0.1953125 74.79296875 C-0.1924826 73.71243729 -0.18965271 72.63190582 -0.18673706 71.51863098 C-0.17556132 68.07480699 -0.15046118 64.63124511 -0.125 61.1875 C-0.11496685 58.84961314 -0.10584158 56.51172219 -0.09765625 54.17382812 C-0.0756305 48.44912965 -0.04217868 42.72458355 0 37 C-0.804375 37.020625 -1.60875 37.04125 -2.4375 37.0625 C-5 37 -5 37 -6 36 C-6.08726223 34.21928754 -6.10699041 32.4351686 -6.09765625 30.65234375 C-6.09443359 29.57275391 -6.09121094 28.49316406 -6.08789062 27.38085938 C-6.07951172 26.24455078 -6.07113281 25.10824219 -6.0625 23.9375 C-6.05798828 22.79732422 -6.05347656 21.65714844 -6.04882812 20.48242188 C-6.03699747 17.65489649 -6.0205141 14.8274736 -6 12 C-4.35 11.67 -2.7 11.34 -1 11 C-0.67 7.37 -0.34 3.74 0 0 Z " fill="#080808" transform="translate(457,177)"/>
<path d="M0 0 C1.12093552 0.00007553 2.24187103 0.00015106 3.39677429 0.00022888 C4.60622208 0.00539017 5.81566986 0.01055145 7.06176758 0.01586914 C8.30050125 0.01728409 9.53923492 0.01869904 10.81550598 0.02015686 C14.1051142 0.02480937 17.39467343 0.03379149 20.68426514 0.04486084 C24.04251506 0.0550991 27.40077216 0.05965965 30.7590332 0.06469727 C37.34564095 0.07573394 43.93221588 0.09247773 50.51879883 0.11352539 C50.54766634 4.25934426 50.5655521 8.40513755 50.58129883 12.55102539 C50.58967773 13.7350293 50.59805664 14.9190332 50.60668945 16.13891602 C50.60991211 17.26362305 50.61313477 18.38833008 50.61645508 19.54711914 C50.62169189 20.58924561 50.62692871 21.63137207 50.63232422 22.70507812 C50.51879883 25.11352539 50.51879883 25.11352539 49.51879883 26.11352539 C46.92520561 26.20204068 44.35840191 26.22878484 41.76489258 26.21118164 C40.98944595 26.20976669 40.21399933 26.20835175 39.41505432 26.20689392 C36.92876388 26.20127884 34.44256222 26.18872385 31.95629883 26.17602539 C30.2746595 26.17101233 28.59301877 26.16644909 26.91137695 26.16235352 C22.78048317 26.15130452 18.64965607 26.13402984 14.51879883 26.11352539 C14.51879883 27.43352539 14.51879883 28.75352539 14.51879883 30.11352539 C26.39879883 30.11352539 38.27879883 30.11352539 50.51879883 30.11352539 C50.51879883 38.69352539 50.51879883 47.27352539 50.51879883 56.11352539 C38.63879883 56.11352539 26.75879883 56.11352539 14.51879883 56.11352539 C14.51879883 69.64352539 14.51879883 83.17352539 14.51879883 97.11352539 C3.95879883 97.11352539 -6.60120117 97.11352539 -17.48120117 97.11352539 C-17.57171288 86.29946468 -17.64503861 75.48565719 -17.68844986 64.6713028 C-17.70928925 59.64929587 -17.73754015 54.62756244 -17.78295898 49.60571289 C-17.82654697 44.75572536 -17.85036571 39.90600025 -17.86071014 35.05583191 C-17.8680783 33.2091204 -17.88246658 31.36242261 -17.9041214 29.51582336 C-17.93332799 26.92112641 -17.93715005 24.32750195 -17.93530273 21.73266602 C-17.94968384 20.97596619 -17.96406494 20.21926636 -17.97888184 19.43963623 C-17.93665914 13.92794989 -16.52033232 9.73003323 -13.48120117 5.11352539 C-9.13269727 0.97714363 -5.89856191 -0.0132552 0 0 Z " fill="#090909" transform="translate(396.481201171875,176.886474609375)"/>
<path d="M0 0 C3.375 -0.1875 3.375 -0.1875 7 0 C9 3 9 3 8.625 6.1875 C8.41875 7.115625 8.2125 8.04375 8 9 C4.625 9.625 4.625 9.625 1 10 C-1 8 -1 8 -1.1875 5 C-1 2 -1 2 0 0 Z " fill="#79797B" transform="translate(432,282)"/>
<path d="M0 0 C0 0.66 0 1.32 0 2 C-5.23471686 2.75612577 -9.77254141 3.2063366 -15 2 C-15 1.67 -15 1.34 -15 1 C-10.03926578 -0.32286246 -5.08888488 -0.08893197 0 0 Z " fill="#606061" transform="translate(112,59)"/>
<path d="M0 0 C2.31 0 4.62 0 7 0 C7 0.99 7 1.98 7 3 C6.34 3.66 5.68 4.32 5 5 C4.34 5 3.68 5 3 5 C2.34 5.66 1.68 6.32 1 7 C1 3 1 3 2 2 C1.34 1.34 0.68 0.68 0 0 Z " fill="#8B8B8C" transform="translate(432,282)"/>
<path d="M0 0 C2.3125 0.1875 2.3125 0.1875 4 1 C-0.39453125 5.00390625 -0.39453125 5.00390625 -2 6 C-2.99 5.67 -3.98 5.34 -5 5 C-2.75 2.4375 -2.75 2.4375 0 0 Z " fill="#4C4C4C" transform="translate(147,317)"/>
<path d="M0 0 C0.99 0.33 1.98 0.66 3 1 C2.34 2.32 1.68 3.64 1 5 C1.99 6.485 1.99 6.485 3 8 C1.68 7.67 0.36 7.34 -1 7 C-1.04254356 5.00045254 -1.04080783 2.99958364 -1 1 C-0.67 0.67 -0.34 0.34 0 0 Z " fill="#545455" transform="translate(432,283)"/>
<path d="M0 0 C0.66 0 1.32 0 2 0 C0.50902342 3.7952131 -1.75700849 5.61042731 -5 8 C-4.1875 5.5625 -4.1875 5.5625 -3 3 C-2.01 2.67 -1.02 2.34 0 2 C0 1.34 0 0.68 0 0 Z " fill="#505050" transform="translate(92,62)"/>
<path d="M0 0 C-1.15173355 2.46800047 -2.04783565 4.04783565 -4 6 C-4.99 5.67 -5.98 5.34 -7 5 C-2.25 0 -2.25 0 0 0 Z " fill="#4F4F4F" transform="translate(242,61)"/>
</svg>
